<svg viewBox="0 0 50 50" width="50" height="50" xmlns="http://www.w3.org/2000/svg">
<path fill-rule="evenodd" clip-rule="evenodd" d="M25 4.875C25.7594 4.875 26.375 5.49061 26.375 6.25V12.5C26.375 13.2594 25.7594 13.875 25 13.875C24.2406 13.875 23.625 13.2594 23.625 12.5V6.25C23.625 5.49061 24.2406 4.875 25 4.875Z"/>
<path fill-rule="evenodd" clip-rule="evenodd" d="M39.3057 10.6937C39.8426 11.2307 39.8426 12.1013 39.3057 12.6383L34.8265 17.1175C34.2895 17.6545 33.4189 17.6545 32.8819 17.1175C32.345 16.5805 32.345 15.7099 32.8819 15.1729L37.3611 10.6937C37.8981 10.1568 38.7687 10.1568 39.3057 10.6937Z"/>
<path fill-rule="evenodd" clip-rule="evenodd" d="M36.125 25C36.125 24.2406 36.7406 23.625 37.5 23.625H43.75C44.5094 23.625 45.125 24.2406 45.125 25C45.125 25.7594 44.5094 26.375 43.75 26.375H37.5C36.7406 26.375 36.125 25.7594 36.125 25Z"/>
<path fill-rule="evenodd" clip-rule="evenodd" d="M32.8819 32.8812C33.4189 32.3443 34.2895 32.3443 34.8265 32.8812L39.3057 37.3604C39.8426 37.8974 39.8426 38.768 39.3057 39.305C38.7687 39.842 37.8981 39.842 37.3611 39.305L32.8819 34.8258C32.345 34.2888 32.345 33.4182 32.8819 32.8812Z"/>
<path fill-rule="evenodd" clip-rule="evenodd" d="M25 36.125C25.7594 36.125 26.375 36.7406 26.375 37.5V43.75C26.375 44.5094 25.7594 45.125 25 45.125C24.2406 45.125 23.625 44.5094 23.625 43.75V37.5C23.625 36.7406 24.2406 36.125 25 36.125Z"/>
<path fill-rule="evenodd" clip-rule="evenodd" d="M17.1182 32.8812C17.6551 33.4182 17.6551 34.2888 17.1182 34.8258L12.639 39.305C12.102 39.842 11.2314 39.842 10.6944 39.305C10.1575 38.768 10.1575 37.8974 10.6944 37.3604L15.1736 32.8812C15.7106 32.3443 16.5812 32.3443 17.1182 32.8812Z"/>
<path fill-rule="evenodd" clip-rule="evenodd" d="M4.875 25C4.875 24.2406 5.49061 23.625 6.25 23.625H12.5C13.2594 23.625 13.875 24.2406 13.875 25C13.875 25.7594 13.2594 26.375 12.5 26.375H6.25C5.49061 26.375 4.875 25.7594 4.875 25Z"/>
<path fill-rule="evenodd" clip-rule="evenodd" d="M10.6944 10.6937C11.2314 10.1568 12.102 10.1568 12.639 10.6937L17.1182 15.1729C17.6551 15.7099 17.6551 16.5805 17.1182 17.1175C16.5812 17.6545 15.7106 17.6545 15.1736 17.1175L10.6944 12.6383C10.1575 12.1013 10.1575 11.2307 10.6944 10.6937Z"/>
</svg>
